<svg width="10" height="16" viewBox="0 0 10 16" fill="none" xmlns="http://www.w3.org/2000/svg">
<path d="M5.00975 1.30356C6.43052 3.06715 7.18895 5.24195 7.16145 7.47356V8.00627L7.6302 8.28515C8.23586 8.64365 8.68755 9.19969 8.90298 9.85194C8.71384 9.71578 8.51596 9.59123 8.31054 9.47904L7.06054 8.79279L6.83593 10.1778C6.81647 10.3002 6.79039 10.4215 6.7578 10.5413H3.2552C3.20311 10.3846 3.1608 10.228 3.12173 10.065L2.83853 8.81159L1.68619 9.43831C1.49367 9.54357 1.3078 9.65972 1.12955 9.78613C1.34917 9.14142 1.79144 8.58851 2.3828 8.21935L2.82876 7.94046V7.44536C2.83681 5.2228 3.60436 3.06455 5.01301 1.30356H5.00975ZM5.01301 0C4.93995 0.00017347 4.86943 0.0257714 4.81444 0.0720721L4.78515 0.0971406C2.90805 2.11806 1.86572 4.7313 1.85546 7.44222C1.05891 7.93971 0.469287 8.69082 0.189632 9.56431C-0.0900236 10.4378 -0.0419296 11.3781 0.32551 12.2209C0.712587 11.398 1.35965 10.7137 2.17447 10.2656C2.25619 10.6063 2.36501 10.9405 2.49999 11.2652C2.51711 11.3276 2.55505 11.3829 2.60798 11.4225C2.66091 11.4621 2.7259 11.4839 2.79296 11.4845H7.31119C7.40233 11.4845 7.49348 11.3999 7.53905 11.2683C7.67079 10.9596 7.76262 10.6365 7.81249 10.3063C8.62886 10.7526 9.27646 11.4374 9.66145 12.2617C10.0511 11.423 10.1114 10.4767 9.83122 9.59851C9.55106 8.72029 8.94944 7.96972 8.13801 7.48609C8.1702 4.75918 7.13339 2.1208 5.23436 0.0971406C5.20608 0.0667043 5.17148 0.0423288 5.13278 0.0255942C5.09409 0.00885975 5.05217 0.000139888 5.00975 0L5.01301 0Z" fill="#4EA8DE"/>
<path d="M5.00977 7.18215C4.75974 7.18214 4.51531 7.11088 4.30729 6.97735C4.09927 6.84382 3.93697 6.654 3.84085 6.43181C3.74472 6.20962 3.71908 5.96501 3.76716 5.72882C3.81523 5.49263 3.93487 5.27542 4.11098 5.10457C4.2871 4.93373 4.51181 4.8169 4.7568 4.76881C5.00179 4.72072 5.25608 4.74352 5.48762 4.83434C5.71917 4.92516 5.9176 5.07994 6.05791 5.27915C6.19822 5.47837 6.27412 5.71311 6.27605 5.95379V5.95379C6.27994 6.10976 6.25187 6.26494 6.19344 6.41047C6.13501 6.556 6.04737 6.68901 5.93552 6.80192C5.82367 6.91483 5.6898 7.00542 5.54157 7.06851C5.39334 7.1316 5.23365 7.16595 5.07162 7.16961C5.05113 7.17278 5.03026 7.17278 5.00977 7.16961V7.18215Z" fill="#4EA8DE"/>
<path d="M6.77079 12.2648C6.68934 12.2623 6.60819 12.2755 6.5321 12.3036C6.45602 12.3316 6.38652 12.3741 6.3277 12.4284C6.26888 12.4827 6.22191 12.5477 6.18955 12.6197C6.1572 12.6917 6.14011 12.7692 6.13928 12.8476V14.6964C6.13928 14.8577 6.20582 15.0123 6.32425 15.1263C6.44268 15.2403 6.60331 15.3044 6.77079 15.3044C6.93828 15.3044 7.09891 15.2403 7.21734 15.1263C7.33577 15.0123 7.4023 14.8577 7.4023 14.6964V12.8727C7.4049 12.7946 7.39132 12.7167 7.36234 12.6437C7.33337 12.5706 7.28958 12.5039 7.23352 12.4473C7.17747 12.3907 7.11028 12.3454 7.03586 12.3141C6.96145 12.2828 6.8813 12.266 6.80009 12.2648H6.77079Z" fill="#5E60CE"/>
<path d="M3.25517 12.2648C3.17233 12.2606 3.08947 12.2724 3.01149 12.2997C2.93352 12.3269 2.86204 12.369 2.8013 12.4233C2.74056 12.4777 2.6918 12.5433 2.65793 12.6162C2.62405 12.6891 2.60576 12.7678 2.60413 12.8476V14.6964C2.60413 14.8577 2.67066 15.0123 2.78909 15.1263C2.90752 15.2403 3.06815 15.3043 3.23564 15.3043C3.40312 15.3043 3.56375 15.2403 3.68218 15.1263C3.80061 15.0123 3.86715 14.8577 3.86715 14.6964V12.8727C3.86975 12.7945 3.85617 12.7167 3.82719 12.6436C3.79821 12.5706 3.75442 12.5038 3.69837 12.4473C3.64232 12.3907 3.57512 12.3454 3.50071 12.3141C3.42629 12.2827 3.34614 12.266 3.26493 12.2648H3.25517Z" fill="#5E60CE"/>
<path d="M4.96415 12.2648C4.88293 12.2631 4.80216 12.2769 4.72645 12.3053C4.65075 12.3337 4.58161 12.3761 4.52296 12.4303C4.46432 12.4844 4.41732 12.5491 4.38467 12.6207C4.35201 12.6923 4.33433 12.7694 4.33264 12.8476V15.3952C4.33264 15.5564 4.39918 15.7111 4.51761 15.8251C4.63604 15.9391 4.79666 16.0031 4.96415 16.0031C5.13164 16.0031 5.29227 15.9391 5.4107 15.8251C5.52913 15.7111 5.59566 15.5564 5.59566 15.3952V12.8884C5.59826 12.8102 5.58468 12.7324 5.5557 12.6593C5.52673 12.5863 5.48294 12.5195 5.42688 12.4629C5.37083 12.4064 5.30364 12.3611 5.22922 12.3297C5.15481 12.2984 5.07466 12.2817 4.99345 12.2805L4.96415 12.2648Z" fill="#5E60CE"/>
</svg>
